<svg width="60" height="60" viewBox="0 0 60 60" fill="none" xmlns="http://www.w3.org/2000/svg">
<path id="Vector" d="M0 54.375C0 57.4805 2.87946 60 6.42857 60H53.5714C57.1205 60 60 57.4805 60 54.375V22.5H0V54.375ZM42.8571 31.4062C42.8571 30.6328 43.5804 30 44.4643 30H49.8214C50.7054 30 51.4286 30.6328 51.4286 31.4062V36.0938C51.4286 36.8672 50.7054 37.5 49.8214 37.5H44.4643C43.5804 37.5 42.8571 36.8672 42.8571 36.0938V31.4062ZM42.8571 46.4062C42.8571 45.6328 43.5804 45 44.4643 45H49.8214C50.7054 45 51.4286 45.6328 51.4286 46.4062V51.0938C51.4286 51.8672 50.7054 52.5 49.8214 52.5H44.4643C43.5804 52.5 42.8571 51.8672 42.8571 51.0938V46.4062ZM25.7143 31.4062C25.7143 30.6328 26.4375 30 27.3214 30H32.6786C33.5625 30 34.2857 30.6328 34.2857 31.4062V36.0938C34.2857 36.8672 33.5625 37.5 32.6786 37.5H27.3214C26.4375 37.5 25.7143 36.8672 25.7143 36.0938V31.4062ZM25.7143 46.4062C25.7143 45.6328 26.4375 45 27.3214 45H32.6786C33.5625 45 34.2857 45.6328 34.2857 46.4062V51.0938C34.2857 51.8672 33.5625 52.5 32.6786 52.5H27.3214C26.4375 52.5 25.7143 51.8672 25.7143 51.0938V46.4062ZM8.57143 31.4062C8.57143 30.6328 9.29464 30 10.1786 30H15.5357C16.4196 30 17.1429 30.6328 17.1429 31.4062V36.0938C17.1429 36.8672 16.4196 37.5 15.5357 37.5H10.1786C9.29464 37.5 8.57143 36.8672 8.57143 36.0938V31.4062ZM8.57143 46.4062C8.57143 45.6328 9.29464 45 10.1786 45H15.5357C16.4196 45 17.1429 45.6328 17.1429 46.4062V51.0938C17.1429 51.8672 16.4196 52.5 15.5357 52.5H10.1786C9.29464 52.5 8.57143 51.8672 8.57143 51.0938V46.4062ZM53.5714 7.5H47.1429V1.875C47.1429 0.84375 46.1786 0 45 0H40.7143C39.5357 0 38.5714 0.84375 38.5714 1.875V7.5H21.4286V1.875C21.4286 0.84375 20.4643 0 19.2857 0H15C13.8214 0 12.8571 0.84375 12.8571 1.875V7.5H6.42857C2.87946 7.5 0 10.0195 0 13.125V18.75H60V13.125C60 10.0195 57.1205 7.5 53.5714 7.5Z" fill="#A69CF8"/>
</svg>
