<svg width="35" height="36" viewBox="0 0 35 36" fill="none" xmlns="http://www.w3.org/2000/svg">
<g id="flat-color-icons:google">
<path id="Vector" d="M31.7995 15.1439H30.6248V15.0833H17.4998V20.9167H25.7416C24.5392 24.3124 21.3083 26.75 17.4998 26.75C12.6676 26.75 8.74984 22.8322 8.74984 18C8.74984 13.1678 12.6676 9.25 17.4998 9.25C19.7304 9.25 21.7596 10.0915 23.3047 11.4659L27.4296 7.34105C24.825 4.91365 21.3411 3.41667 17.4998 3.41667C9.44619 3.41667 2.9165 9.94636 2.9165 18C2.9165 26.0536 9.44619 32.5833 17.4998 32.5833C25.5535 32.5833 32.0832 26.0536 32.0832 18C32.0832 17.0222 31.9825 16.0677 31.7995 15.1439Z" fill="#FFC107"/>
<path id="Vector_2" d="M4.59814 11.2122L9.3895 14.726C10.686 11.5163 13.8257 9.25001 17.5 9.25001C19.7305 9.25001 21.7598 10.0915 23.3049 11.4659L27.4298 7.34105C24.8252 4.91365 21.3413 3.41667 17.5 3.41667C11.8986 3.41667 7.04085 6.57907 4.59814 11.2122Z" fill="#FF3D00"/>
<path id="Vector_3" d="M17.4999 32.5833C21.2668 32.5833 24.6895 31.1418 27.2773 28.7975L22.7638 24.9781C21.2504 26.129 19.4012 26.7515 17.4999 26.75C13.7068 26.75 10.486 24.3314 9.27272 20.956L4.51709 24.6201C6.93063 29.3429 11.8321 32.5833 17.4999 32.5833Z" fill="#4CAF50"/>
<path id="Vector_4" d="M31.7997 15.1438H30.625V15.0833H17.5V20.9167H25.7418C25.1666 22.5328 24.1306 23.945 22.7617 24.9788L22.7639 24.9774L27.2774 28.7968C26.958 29.087 32.0833 25.2917 32.0833 18C32.0833 17.0222 31.9827 16.0677 31.7997 15.1438Z" fill="#1976D2"/>
</g>
</svg>
