<svg width="44" height="43" viewBox="0 0 44 43" fill="none" xmlns="http://www.w3.org/2000/svg">
<g id="Group">
<path id="Vector" d="M23.9736 5.34688C23.3535 4.88908 22.5992 4.6416 21.8241 4.6416C21.0489 4.6416 20.2946 4.88908 19.6745 5.34688L7.13521 14.6037C6.69026 14.9321 6.32911 15.3581 6.08038 15.8477C5.83164 16.3374 5.70215 16.8773 5.70215 17.4248V34.1752C5.70215 35.1104 6.0796 36.0074 6.75148 36.6687C7.42336 37.33 8.33462 37.7016 9.2848 37.7016H16.271C16.7936 37.7016 17.2947 37.4972 17.6643 37.1335C18.0338 36.7698 18.2414 36.2764 18.2414 35.762V27.1224C18.2414 26.1871 18.6189 25.2902 19.2907 24.6288C19.9626 23.9675 20.8739 23.596 21.8241 23.596C22.7742 23.596 23.6855 23.9675 24.3574 24.6288C25.0292 25.2902 25.4067 26.1871 25.4067 27.1224V35.762C25.4067 36.2764 25.6143 36.7698 25.9838 37.1335C26.3534 37.4972 26.8546 37.7016 27.3772 37.7016H34.3633C35.3135 37.7016 36.2248 37.33 36.8966 36.6687C37.5685 36.0074 37.946 35.1104 37.946 34.1752V17.4248C37.946 16.8773 37.8165 16.3374 37.5677 15.8477C37.319 15.3581 36.9579 14.9321 36.5129 14.6037L23.9736 5.34688Z" fill="currentColor"/>
</g>
</svg>
