<svg width="60" height="60" viewBox="0 0 60 60" fill="none" xmlns="http://www.w3.org/2000/svg">
<path id="Vector" d="M56.4822 0.00727311C50.7738 0.423789 39.4278 1.93985 32.4235 7.45233C31.9401 7.83268 31.6662 8.50902 31.6662 9.21616V57.9485C31.6662 59.4954 32.9818 60.473 34.0912 59.7552C41.2976 55.0918 51.7196 53.8195 56.8729 53.4713C58.6323 53.3521 60 51.5387 60 49.3651V4.11886C60.001 1.747 58.401 -0.132012 56.4822 0.00727311ZM27.5765 7.45233C20.5733 1.93985 9.22724 0.425128 3.51881 0.00727311C1.60003 -0.132012 0 1.747 0 4.11886V49.3664C0 51.5414 1.36773 53.3548 3.12714 53.4726C8.28244 53.8208 18.7097 55.0945 25.9161 59.7605C27.0223 60.4771 28.3338 59.5007 28.3338 57.9579V9.19205C28.3338 8.48357 28.0609 7.83402 27.5765 7.45233Z" fill="#A69CF8"/>
</svg>
