<svg width="25" height="25" viewBox="0 0 25 25" fill="none" xmlns="http://www.w3.org/2000/svg">
<path id="Vector" d="M23.7091 15.1019C24.1109 14.7945 24.4361 14.4001 24.6599 13.9491C24.8837 13.4981 25 13.0024 25 12.5C25 11.9976 24.8837 11.5019 24.6599 11.0509C24.4361 10.5999 24.1109 10.2055 23.7091 9.89808C18.5062 5.91731 12.6964 2.77965 6.49715 0.602538L5.36369 0.204354C3.19744 -0.555971 0.907956 0.892595 0.61461 3.10492C-0.20487 9.3421 -0.20487 15.6579 0.61461 21.8951C0.909692 24.1074 3.19744 25.556 5.36369 24.7956L6.49715 24.3975C12.6964 22.2203 18.5062 19.0827 23.7091 15.1019Z" fill="white"/>
</svg>
